<?xml version="1.0" encoding="utf-8"?>
<!-- Generator: Adobe Illustrator 26.0.0, SVG Export Plug-In . SVG Version: 6.00 Build 0)  -->
<svg version="1.1" id="Layer_1" xmlns="http://www.w3.org/2000/svg" xmlns:xlink="http://www.w3.org/1999/xlink" x="0px" y="0px"
	 viewBox="0 0 900 764" style="enable-background:new 0 0 900 764;" xml:space="preserve">
<path d="M899.8,789.6L702.1,372.5l0.4-1.3c0.4-1.1,0.2-2.3-0.5-3.3l-1-1.4c-0.5-0.7-1.4-0.9-2.2-0.7L628.9,218l-9.3-0.2l-5.5-9.8
	l5.5-14.8c0.3-0.7,0.1-1.5-0.4-2.1l-2.1-2.3c-0.4-0.4-0.9-0.6-1.4-0.6l-12.2-0.5l-27.1-26.8l4.1-6.1l139.3-78.3l7.1,3.6
	c1.5,0.8,3.3,0.7,4.7-0.1l50.8-28.6c4.6-2.6,1.8-16.2-6.2-30.4c-8-14.2-18.2-23.6-22.7-21.1l-50.8,28.6c-1.5,0.8-2.4,2.3-2.5,4
	l-0.6,7.9L455.3,177.8l-12,1.1c0,0-2.8-3.2-4.1-3.3c-2.8-0.2-8.6,3.1-9.9,5.6c-1.3,2.4,1,10.8,1,10.8l-5.4,3c-1.5,0.8-2.4,2.3-2.5,4
	l-0.4,5.5c-2.8,1-7.1,2.8-11.3,5.8c-2.2-1.3-5.2-2.7-6.3-1.8c-1.1,0.9,0,4.3,0.9,6.6c-2.3,2.5-4.3,5.6-5.6,9.2l-116.8,65.6
	c-1.1,0.6-2.4,0.8-3.7,0.5l-1.4,0c-0.8,0-1.3,0.8-0.9,1.5l9.5,17c0.4,0.7,1.4,0.7,1.7,0l0.7-1.2c0.4-1.2,1.2-2.3,2.3-2.9l113-63.5
	c3.3,0.7,6.7-0.3,6.7-0.3s4.3,8.5,7,9.8c2,1,6.8,0.3,8.9-0.4c1.7-0.6,4.8-2.7,5.6-4.3c1.6-3.3-0.3-14.8-0.3-14.8s17.4,6.6,22.2,3.6
	c2.2-1.4,3.5-7.3,4.1-11.3l71.3-40.1l5.7,0.2l2.8,4c0.4,0.5,0.9,0.8,1.6,0.8l4.8,0.1l0-0.1l26,1.5l1.5,2.7c0.3,0.5,0.8,0.9,1.4,1
	l1.8,0.3l12.2,11.6l-16,20.7l-65.4,137.7c-1.1,0.4-2,1.2-2.4,2.3l-2.3,5.3c-0.4,0.9-1.1,3.2-1.6,5.8L307.9,781.7l30.5,1.2
	l94.4-213.6l3.2,0.2c0.3,0,0.6,0.1,0.9,0.3l2.7,2.1c0.4,0.3,1,0.4,1.5,0.3l2.3-0.8c0.8-0.3,1.3-1.1,1-2l-1.8-6.2
	c-0.1-0.4-0.4-0.8-0.9-1l-4.9-2.3l4.3-9.6l4.5-2.9c0.8-0.5,1-1.7,0.3-2.4l-1.6-1.8l69-156.1l2.7,0.4c1.9,0.3,5.4,0.3,7-0.7
	c1-0.6,2.5-2.9,3-4c0,0,3-7-1-10l-4.3-2.5l49.7-112.4l13.3-17.7L560.3,360l-0.1,0c-0.7-0.1-1.4,0.4-1.5,1.1l-2.1,13.1
	c-0.1,0.6,0.2,1.1,0.7,1.4L521.1,561l-5.7,1.2c-1.2,0.3-2.3,1.3-2.9,2.7l-3.3,7.8c-0.8,1.9-0.2,3.8,1.3,4l7.3,1.3l-42.2,216.1
	l24.1-2.1l42.1-238.1l1.5-1.9c0.7-0.9,1.1-2,1.2-3l0.1-1.5c0-0.6-0.7-1.2-1.4-1.5l29.7-168l1.5,0.2c0.7,0.1,1.4-0.4,1.5-1.1l0.5-3.3
	l11.6,1.1c1.8,0.5,3.8,0,5.1-1.5l5.9-6.6c0.6-0.6,0.7-1.6,0.2-2.3c-0.6-0.9-1.9-1.1-2.8-0.4L590,368l-12.5-0.9l0.5-2.9
	c0.1-0.7-0.4-1.4-1.1-1.5l-1.3-0.2l18.6-105.2l12.7,0.8c1.2,0.1,2.2-0.9,2.1-2.1l-0.6-21.4l7.4-9.1l68.7,149.2l-5.7,3.3
	c-1.1,0.6-1.7,1.8-1.6,3.1l0.6,6.9c0.1,1.6,1.7,2.8,3.3,2.5l9.7-2l71.4,155.2c-0.1,0.3-0.2,0.5-0.2,0.8l1,11.4
	c0,1.1,0.8,1.9,1.7,1.7l3.6-0.6l7.1,15.5c-0.3,0.3-0.6,0.8-0.7,1.3L774,578c-0.2,1.1,0.5,2,1.4,2l3.5,0l100.7,218.7L899.8,789.6z
	 M543.8,185l-0.8-3.6l10.1-11l6.5-0.4l9.8,16.2L543.8,185z"/>
<g>
	<path d="M360,695.3c-21-12.3-32.2-24.2-38-34.3c-4-7,0-23,0-23c0.9-1.7,0.2-3.7-0.8-5.9c0.9-2.6,2.5-7.3,4-11.7
		c2.1-6.5,9.8-22.9,11.9-27.5c9-20,20-41,28-67c8-26,5-36,4-41s-7-15-22-17c-8.8-1.2-17.2,2.1-22.7,5c3.3-11.4-4.3-17-4.3-17
		l-38-35.7l1.1-1.3c0,0-42.1-42-47.1-42l-10-1c-7.7-7.7-5.2-16.8-4.3-19.3C224,352,226,353,234,354c3.6,0.5,16.1,1.9,19-1
		c4-4,1.8-9,1-13c-1-5,1.2-6.9,1-8c0-0.7-1-3,0-4c1.9-1.9-2.8-6.7-0.3-8.4c1.9-0.8,3.4-2.7,4.4-4c0.7-0.9,0.5-2.2-0.3-3
		c-7.3-6.8-7.8-13.1-7.6-15.4c0-0.3,0.1-0.6,0.1-1c0,0,0,0,0,0l0,0c0.9-8.2-1.7-16.3-3.8-21.2c3.7,5.2,4.4,9.1,4.6,9.9
		c-1-6.9-2.1-12.9-16-25.9c-14-13-46.1-6.1-46.1-6.1l0,0c-21.1,1.5-39.5,14.4-44.9,33c-4,14-5.3,27.3,14,53c6,6,9.3,25.9-3,30
		c-12,4-40.2,18.8-43,22c-2,2.3-4.2,6.3-6.3,11.2v0c0,0-15.7,33.8-17.7,49.8c0,0,1.2,1,3.1,2.4c-7.6,29.8-7.9,57.8-8.4,96.6
		c-0.1,9.5,2.9,18.1,8.1,26c3.5,19,13.3,51,41.2,66c7.6,4.1,15.7,8.4,23.8,12.6C89,655.3,89.2,659,64,660c-2.6,0.1-5.3,0.1-8.1,0.1
		c-1.1-1.6-2.1-2.8-2.9-3.1c-3.6-1.5-23.5,1.2-34.2,2.8c-2.3,0.2-4.5,0.6-6.6,1c-0.1,0-0.2,0-0.2,0l0,0C5.5,662.4,1,665.4,0,671
		c-3,17,10,23.4,15,34c9,19,8.6,24.7,13,36c9,23,13.8,27.9,23,20c7-6,7-17.9,7-45c0-3.4-0.1-7.2,0.3-10.8c1.2-4,6.1-8.6,8.7-11.2
		c0.3-0.3,0.4-0.9,0.5-1.6c1.1-0.2,2.3-0.4,3.6-0.4c14.1,0,61.9,11,83.9,14s98,12,97-22c-0.5-18.7-8.7-36.2-15.9-48.1l5.8-1.6
		l-10.4-50L307,567c0.3-0.5,0.6-1.1,0.9-1.6c-2.1,14.1-2.1,22.5-9.9,35.6c-7.5,12.5-4.6,11.8-8.6,15.9c-3,0.6-6.2,2.1-8.4,5.7
		c-0.2,0.4-0.4,0.8-0.4,1.2l-0.1,0c0,0-0.5,5.2-12.5,23.3c-12,18.1-11,36.9,0,50.9s33.8,10.1,48,17c39,19,51.6,16.8,58,14
		C381,726,379.9,707,360,695.3z M285.6,485.7L238,501c1.5-10.5,3.3-23.9,4-39l3,3l13-15l31.6,18.2L285.6,485.7z M318.3,527.3
		l7.6-4.2c-3.1,4.1-6.3,9-9.1,14.4C317.4,534.2,317.9,530.7,318.3,527.3z"/>
	<path d="M252,284.8c0,0,0,0.1,0,0.1C252,285,252,284.9,252,284.8z"/>
</g>
</svg>
