<?xml version="1.0" encoding="utf-8"?>
<!-- Generator: Adobe Illustrator 26.0.0, SVG Export Plug-In . SVG Version: 6.00 Build 0)  -->
<svg version="1.1" id="Layer_1" xmlns="http://www.w3.org/2000/svg" xmlns:xlink="http://www.w3.org/1999/xlink" x="0px" y="0px"
	 viewBox="0 0 430 700" style="enable-background:new 0 0 430 700;" xml:space="preserve">
<style type="text/css">
	.st0{display:none;opacity:0.5;fill:#FFB44B;}
	.st1{display:none;opacity:0.75;fill:#FFAF32;}
	.st2{display:none;fill:#FF7D00;}
	.st3{fill:#FFFFFF;}
	.st4{opacity:0.5;fill:#FFFFFF;}
</style>
<path class="st0" d="M213.6,528.2c-35.6,0.9-63.5,27.1-63.5,58.1v0c0,23.5,8.7,52.2,24.7,71c10.1,11.9,40.6,41.7,40.6,41.7
	s29.8-29.1,39.8-40.7c16.6-19.4,25.5-48.9,25.5-73.1v0C280.8,553.2,250.6,527.3,213.6,528.2z"/>
<path class="st1" d="M214.2,554.2c-24.8,0.6-44.2,18.8-44.2,40.4l0,0c0,16.3,6,36.3,17.2,49.4c7.1,8.3,28.2,29,28.2,29
	s20.8-20.2,27.7-28.4c11.5-13.5,17.8-34,17.8-50.9l0,0C260.9,571.5,239.9,553.6,214.2,554.2z"/>
<path class="st2" d="M214.6,574.7c-16.2,0.4-28.9,12.3-28.9,26.5v0c0,10.7,4,23.8,11.3,32.4c4.6,5.4,18.5,19,18.5,19
	s13.6-13.3,18.1-18.6c7.6-8.9,11.6-22.3,11.6-33.3v0C245.3,586,231.5,574.3,214.6,574.7z"/>
<g>
	<g>
		<g>
			<circle class="st3" cx="215.5" cy="406.8" r="7.9"/>
			<circle class="st3" cx="258.2" cy="389.1" r="7.9"/>
			<circle class="st3" cx="275.9" cy="346.4" r="7.9"/>
			<circle class="st3" cx="258.2" cy="303.6" r="7.9"/>
			<circle class="st3" cx="215.5" cy="286" r="7.9"/>
			<circle class="st3" cx="172.8" cy="303.6" r="7.9"/>
			<circle class="st3" cx="155.1" cy="346.4" r="7.9"/>
			<circle class="st3" cx="172.8" cy="389.1" r="7.9"/>
		</g>
		<path class="st4" d="M215.5,275c-39.4,0-71.3,31.9-71.3,71.3s31.9,71.3,71.3,71.3s71.3-31.9,71.3-71.3S254.9,275,215.5,275z
			 M215.5,278c4.4,0,7.9,3.5,7.9,7.9s-3.5,7.9-7.9,7.9s-7.9-3.5-7.9-7.9S211.1,278,215.5,278z M264.7,346.4
			c0,27.2-22,49.2-49.2,49.2s-49.2-22-49.2-49.2s22-49.2,49.2-49.2S264.7,319.2,264.7,346.4z M167.2,298c3.1-3.1,8.1-3.1,11.2,0
			c3.1,3.1,3.1,8.1,0,11.2c-3.1,3.1-8.1,3.1-11.2,0C164.1,306.2,164.1,301.1,167.2,298z M155.1,354.3c-4.4,0-7.9-3.5-7.9-7.9
			c0-4.4,3.5-7.9,7.9-7.9c4.4,0,7.9,3.5,7.9,7.9C163,350.7,159.5,354.3,155.1,354.3z M178.4,394.7c-3.1,3.1-8.1,3.1-11.2,0
			c-3.1-3.1-3.1-8.1,0-11.2c3.1-3.1,8.1-3.1,11.2,0C181.5,386.6,181.5,391.6,178.4,394.7z M215.5,414.7c-4.4,0-7.9-3.5-7.9-7.9
			c0-4.4,3.5-7.9,7.9-7.9s7.9,3.5,7.9,7.9C223.4,411.1,219.9,414.7,215.5,414.7z M263.8,394.7c-3.1,3.1-8.1,3.1-11.2,0
			c-3.1-3.1-3.1-8.1,0-11.2c3.1-3.1,8.1-3.1,11.2,0C266.9,386.6,266.9,391.6,263.8,394.7z M263.8,309.2c-3.1,3.1-8.1,3.1-11.2,0
			c-3.1-3.1-3.1-8.1,0-11.2c3.1-3.1,8.1-3.1,11.2,0C266.9,301.1,266.9,306.2,263.8,309.2z M275.9,354.3c-4.4,0-7.9-3.5-7.9-7.9
			c0-4.4,3.5-7.9,7.9-7.9c4.4,0,7.9,3.5,7.9,7.9C283.8,350.7,280.3,354.3,275.9,354.3z"/>
		<path class="st3" d="M363.2,409.6c0-21.8-2.7-43-7.2-63.5c0,0,0,0,0,0c-7.3-32.7-19.5-63.3-33.8-90.9l-11.6-5
			c-30.1-12.9-62.1-19.5-95.1-19.5s-65,6.5-95.1,19.5l-11.6,5c-14.3,27.6-26.5,58.3-33.8,90.9l0,0c-4.6,20.4-7.2,41.7-7.2,63.5
			c0,51.5,14.7,100,34.9,142.1v0c0.9,1.9,1.8,3.7,2.7,5.6c0.1,0.1,0.1,0.2,0.2,0.4c0.9,1.9,1.9,3.7,2.8,5.6c0,0,0,0,0,0
			c0,0,0,0,0,0.1c6.8,13.3,14.2,25.9,21.7,37.7c0,0,0,0,0,0c4.5,7.1,9,13.9,13.6,20.4c0,0,0.1,0.1,0.1,0.1c1.3,1.9,2.6,3.7,3.9,5.6
			c0.1,0.1,0.1,0.1,0.2,0.2c1.3,1.9,2.7,3.7,4,5.5c4.2-1.3,8.4-2.4,12.6-3.5c3.2-0.8,6.4-1.5,9.7-2.1c0.5-0.1,1-0.2,1.5-0.3
			c2.4-0.4,4.8-0.9,7.2-1.2c1.1-0.2,2.3-0.3,3.4-0.5c1.7-0.2,3.4-0.4,5.1-0.6c0.5-0.1,1-0.1,1.4-0.1c1.1-0.1,2.2-0.2,3.2-0.3
			c0.5,0,1.1-0.1,1.6-0.1c1.1-0.1,2.2-0.2,3.3-0.2c0.5,0,1-0.1,1.5-0.1c4.3-0.3,8.6-0.4,12.9-0.4c2.8,0,5.5,0.1,8.2,0.2
			c1.3,0,2.6,0.1,3.9,0.2c0.4,0,0.8,0.1,1.3,0.1c0.9,0.1,1.7,0.1,2.6,0.2c0.5,0,1,0.1,1.5,0.1c0.8,0.1,1.6,0.1,2.4,0.2
			c0.5,0,1,0.1,1.5,0.1c0.8,0.1,1.5,0.2,2.3,0.2c0.5,0.1,1,0.1,1.5,0.2c0.8,0.1,1.6,0.2,2.3,0.3c0.5,0.1,1,0.1,1.5,0.2
			c0.8,0.1,1.7,0.2,2.5,0.4c0.4,0.1,0.8,0.1,1.2,0.2c2.5,0.4,5,0.8,7.5,1.3c0.4,0.1,0.8,0.2,1.2,0.2c0.8,0.2,1.7,0.3,2.5,0.5
			c0.5,0.1,0.9,0.2,1.4,0.3c0.8,0.2,1.5,0.3,2.3,0.5c0.5,0.1,1,0.2,1.5,0.3c0.7,0.2,1.5,0.3,2.2,0.5c0.5,0.1,1,0.2,1.5,0.4
			c0.8,0.2,1.5,0.4,2.2,0.6c0.5,0.1,0.9,0.2,1.4,0.4c0.8,0.2,1.6,0.4,2.4,0.7c0.4,0.1,0.8,0.2,1.2,0.3c1.2,0.3,2.4,0.7,3.6,1.1
			c1.3-1.8,2.7-3.6,4-5.5c0.1-0.1,0.1-0.2,0.2-0.2c1.3-1.8,2.6-3.7,3.9-5.5c0-0.1,0.1-0.1,0.1-0.2c4.5-6.5,9.1-13.3,13.6-20.3
			c0,0,0,0,0,0c7.5-11.8,14.8-24.4,21.7-37.7c0,0,0,0,0,0c0,0,0,0,0,0c1-1.8,1.9-3.7,2.8-5.6c0.1-0.1,0.1-0.2,0.2-0.4
			c0.9-1.8,1.8-3.7,2.7-5.6v0C348.4,509.6,363.2,461.2,363.2,409.6z M215.5,417.7c-39.4,0-71.3-31.9-71.3-71.3s31.9-71.3,71.3-71.3
			s71.3,31.9,71.3,71.3S254.9,417.7,215.5,417.7z"/>
		<path class="st3" d="M93.2,566.6c-0.4-0.7-0.7-1.4-1.1-2.1l-0.1-0.3l-0.1-0.1c-1-2-1.9-3.9-2.8-5.8
			C65,507.8,52.7,457.8,52.7,409.6c0-14.7,1.2-29.6,3.5-44.8C21.6,403.7,0.5,455.1,0.5,511.6c0,69.5,32,131.5,81.8,171.5
			c-4.8-14.4-7.4-29.9-7.4-45.9C74.8,611.5,81.5,587.4,93.2,566.6z"/>
		<path class="st3" d="M374.8,364.9c2.3,15.1,3.5,30.1,3.5,44.8c0,48.2-12.2,98.2-36.4,148.6c-0.9,1.9-1.8,3.8-2.8,5.8l-0.1,0.2
			l-0.1,0.2c-0.4,0.7-0.7,1.4-1.1,2.1c11.7,20.8,18.4,44.9,18.4,70.6c0,16.1-2.6,31.5-7.4,45.9c49.8-40,81.8-102,81.8-171.5
			C430.5,455.1,409.4,403.7,374.8,364.9z"/>
		<path class="st3" d="M215.5,215.7c32.8,0,64.7,6.1,94.9,18.2c-0.8-1.3-1.6-2.7-2.4-4c-0.2-0.3-0.4-0.6-0.6-0.9
			c-0.9-1.5-1.8-3-2.7-4.4c-0.1-0.2-0.3-0.5-0.4-0.7c-1-1.6-2-3.1-2.9-4.7c-0.2-0.4-0.5-0.8-0.7-1.2c-1-1.5-1.9-3.1-2.9-4.6
			c-0.2-0.3-0.3-0.5-0.5-0.8c-0.9-1.3-1.7-2.7-2.6-4c-0.2-0.4-0.5-0.7-0.7-1.1c-0.9-1.4-1.9-2.8-2.8-4.2c-0.3-0.4-0.6-0.8-0.9-1.2
			c-0.8-1.2-1.7-2.5-2.5-3.7c-0.2-0.3-0.5-0.7-0.7-1c-0.9-1.2-1.7-2.4-2.6-3.6c-0.3-0.5-0.7-0.9-1-1.4c-0.9-1.2-1.8-2.5-2.7-3.7
			c-0.3-0.5-0.7-0.9-1-1.4c-0.7-0.9-1.4-1.9-2.1-2.8c-0.3-0.4-0.7-0.9-1-1.3c-0.9-1.1-1.7-2.3-2.6-3.4c-0.4-0.5-0.8-1-1.2-1.6
			c-0.7-0.9-1.4-1.8-2.1-2.7c-0.5-0.6-1-1.3-1.5-1.9c-0.6-0.7-1.1-1.4-1.7-2.1c-0.4-0.5-0.9-1.1-1.3-1.6c-0.8-1-1.5-1.9-2.3-2.8
			c-0.5-0.6-0.9-1.1-1.4-1.7c-0.5-0.6-0.9-1.1-1.4-1.7c-0.7-0.9-1.4-1.7-2.1-2.6c-0.4-0.5-0.9-1-1.3-1.5c-0.5-0.6-1-1.2-1.5-1.8
			c-0.4-0.5-0.8-0.9-1.2-1.4c-0.8-0.9-1.6-1.8-2.3-2.7c-0.3-0.4-0.6-0.7-0.9-1.1c-0.9-1-1.8-2.1-2.6-3c-0.2-0.3-0.4-0.5-0.7-0.8
			c-0.5-0.6-1-1.2-1.5-1.8c-0.2-0.3-0.5-0.5-0.7-0.8c-0.9-1-1.8-2-2.6-2.9c-0.2-0.2-0.4-0.4-0.6-0.7c-1.6-1.7-3.1-3.4-4.6-5
			c-0.2-0.2-0.3-0.3-0.5-0.5c-0.9-0.9-1.7-1.8-2.5-2.7c-0.1-0.1-0.3-0.3-0.4-0.4c-0.5-0.5-0.9-1-1.4-1.4c-0.1-0.1-0.1-0.1-0.2-0.2
			c-0.8-0.9-1.6-1.7-2.4-2.5c-0.2-0.2-0.3-0.3-0.5-0.5c-0.7-0.7-1.4-1.4-2-2.1c-0.1-0.1-0.3-0.3-0.4-0.4c-0.3-0.4-0.7-0.7-1-1
			c-0.2-0.2-0.5-0.5-0.7-0.7c-0.5-0.5-0.9-0.9-1.3-1.3c-0.3-0.3-0.5-0.5-0.8-0.8c-0.2-0.2-0.5-0.5-0.7-0.7c-0.4-0.4-0.8-0.8-1.2-1.2
			c-0.1-0.1-0.3-0.3-0.4-0.4c-0.4-0.4-0.8-0.8-1.2-1.2c0,0,0,0,0,0c0,0-0.1-0.1-0.1-0.1c-0.4-0.4-0.7-0.7-1.1-1c0,0-0.1-0.1-0.1-0.1
			c-0.3-0.3-0.7-0.6-1-0.9c-0.1-0.1-0.2-0.2-0.2-0.2c-0.3-0.3-0.6-0.5-0.8-0.8c0,0,0,0,0,0c-0.1-0.1-0.2-0.2-0.3-0.2
			c0,0-0.1-0.1-0.1-0.1c-0.1-0.1-0.2-0.2-0.3-0.3c-0.1-0.1-0.3-0.3-0.4-0.4c-0.1-0.1-0.2-0.2-0.3-0.3c-0.1-0.1-0.2-0.2-0.3-0.3
			c0,0,0,0-0.1-0.1c0,0,0,0-0.1-0.1c-0.1-0.1-0.2-0.2-0.2-0.2c0,0-0.1,0-0.1-0.1c0,0,0,0,0,0c0,0,0,0,0,0s0,0,0,0c0,0,0,0,0,0
			c0,0,0,0-0.1,0.1c-0.1,0.1-0.1,0.1-0.2,0.2c0,0,0,0-0.1,0.1c0,0,0,0-0.1,0.1c-0.1,0.1-0.2,0.2-0.3,0.3c-0.1,0.1-0.2,0.2-0.3,0.3
			c-0.1,0.1-0.3,0.2-0.4,0.4c-0.1,0.1-0.2,0.2-0.3,0.3c0,0-0.1,0.1-0.1,0.1c-0.1,0.1-0.2,0.2-0.3,0.2c0,0,0,0,0,0
			c-0.3,0.2-0.5,0.5-0.8,0.8c-0.1,0.1-0.2,0.2-0.2,0.2c-0.3,0.3-0.6,0.6-1,0.9c0,0-0.1,0.1-0.1,0.1c-0.3,0.3-0.7,0.7-1.1,1
			c0,0-0.1,0.1-0.1,0.1c0,0,0,0,0,0c-0.4,0.4-0.8,0.8-1.2,1.2c-0.1,0.1-0.3,0.3-0.4,0.4c-0.4,0.4-0.8,0.8-1.2,1.2
			c-0.2,0.2-0.5,0.5-0.7,0.7c-0.3,0.3-0.5,0.5-0.8,0.8c-0.4,0.4-0.9,0.9-1.3,1.3c-0.2,0.2-0.5,0.5-0.7,0.7c-0.3,0.3-0.7,0.7-1,1
			c-0.1,0.1-0.3,0.3-0.4,0.4c-0.7,0.7-1.3,1.4-2,2.1c-0.2,0.2-0.3,0.3-0.5,0.5c-0.8,0.8-1.6,1.7-2.4,2.5c-0.1,0.1-0.1,0.1-0.2,0.2
			c-0.5,0.5-0.9,1-1.4,1.4c-0.1,0.1-0.3,0.3-0.4,0.4c-0.8,0.9-1.7,1.8-2.5,2.7c-0.2,0.2-0.3,0.3-0.5,0.5c-1.5,1.6-3,3.3-4.6,5
			c-0.2,0.2-0.4,0.4-0.6,0.7c-0.9,1-1.7,1.9-2.6,2.9c-0.2,0.3-0.5,0.5-0.7,0.8c-0.5,0.6-1,1.2-1.5,1.8c-0.2,0.3-0.4,0.5-0.7,0.8
			c-0.9,1-1.8,2-2.6,3c-0.3,0.4-0.6,0.7-0.9,1.1c-0.7,0.9-1.5,1.8-2.3,2.7c-0.4,0.5-0.8,1-1.2,1.5c-0.5,0.6-1,1.2-1.5,1.7
			c-0.4,0.5-0.9,1-1.3,1.6c-0.7,0.8-1.4,1.7-2.1,2.5c-0.5,0.6-0.9,1.1-1.4,1.7c-0.5,0.6-0.9,1.1-1.4,1.7c-0.8,0.9-1.5,1.9-2.3,2.8
			c-0.4,0.5-0.8,1.1-1.3,1.6c-0.6,0.7-1.1,1.4-1.7,2.1c-0.5,0.6-1,1.3-1.5,1.9c-0.7,0.9-1.4,1.8-2.1,2.7c-0.4,0.5-0.8,1-1.2,1.6
			c-0.9,1.1-1.7,2.2-2.6,3.4c-0.3,0.4-0.6,0.9-1,1.3c-0.7,0.9-1.4,1.9-2.1,2.8c-0.3,0.4-0.7,0.9-1,1.3c-0.9,1.2-1.8,2.5-2.7,3.7
			c-0.3,0.4-0.6,0.9-1,1.4c-0.9,1.2-1.7,2.4-2.6,3.7c-0.2,0.3-0.5,0.7-0.7,1c-0.9,1.2-1.7,2.5-2.6,3.7c-0.3,0.4-0.6,0.8-0.8,1.2
			c-1,1.4-1.9,2.8-2.9,4.2c-0.2,0.4-0.5,0.7-0.7,1.1c-0.9,1.3-1.8,2.6-2.6,4c-0.2,0.2-0.3,0.5-0.5,0.7c-1,1.5-2,3-2.9,4.6
			c-0.2,0.4-0.5,0.8-0.7,1.1c-1,1.6-2,3.1-2.9,4.7c-0.1,0.2-0.3,0.4-0.4,0.7c-0.9,1.5-1.8,3-2.7,4.5c-0.2,0.3-0.4,0.6-0.5,0.9
			c-0.8,1.3-1.6,2.7-2.4,4C150.8,221.9,182.7,215.7,215.5,215.7z"/>
	</g>
	<path class="st3" d="M255.7,674.9h-80.5c-6.9,0-12.5,5.6-12.5,12.5v0.1c0,6.9,5.6,12.5,12.5,12.5h80.5c6.9,0,12.5-5.6,12.5-12.5
		v-0.1C268.2,680.5,262.6,674.9,255.7,674.9z"/>
	<path class="st3" d="M238.1,640.9h-45.3c-6.9,0-12.5,5.6-12.5,12.5v0.1c0,6.9,5.6,12.5,12.5,12.5h45.3c6.9,0,12.5-5.6,12.5-12.5
		v-0.1C250.6,646.5,245.1,640.9,238.1,640.9z"/>
</g>
</svg>
